<svg width="512" height="512" viewBox="0 0 512 512" fill="none" xmlns="http://www.w3.org/2000/svg">
<path d="M466.27 225.31C470.944 202.663 467.134 180.772 457.28 162.32C460.238 138.452 453.259 113.755 439.94 95.33C438.986 39.423 404.117 0 327 0C320 0 312 0.01 304.78 0.01C201.195 0.01 168.997 40 128 40H117.155C111.515 35.025 104.113 32 96 32H32C14.327 32 0 46.327 0 64V304C0 321.673 14.327 336 32 336H96C107.842 336 118.175 329.562 123.708 320H130.76C149.906 336.953 176.773 380.653 199.52 403.4C213.187 417.067 209.673 512 271.28 512C328.86 512 366.55 480.064 366.55 407.27C366.55 388.86 362.62 373.54 357.7 360.73H394.18C442.782 360.73 480 319.165 480 275.15C480 256 475.04 240.16 466.27 225.31V225.31ZM64 296C50.745 296 40 285.255 40 272C40 258.745 50.745 248 64 248C77.255 248 88 258.745 88 272C88 285.255 77.255 296 64 296ZM394.18 312.73H290.19C290.19 350.55 318.55 368.1 318.55 407.27C318.55 431.02 318.55 464 271.28 464C252.37 445.09 261.82 397.82 233.46 369.46C206.9 342.89 167.28 272 138.92 272H128V85.83C181.611 85.83 228.001 48.01 299.64 48.01H337.46C372.972 48.01 398.28 65.13 390.58 113.91C405.78 122.07 417.08 150.35 404.52 171.48C426.101 191.864 423.219 222.545 409.73 237.1C419.18 237.1 432.09 256.01 432 274.91C431.91 293.82 415.29 312.73 394.18 312.73V312.73Z" fill="#254BD2"/>
</svg>
